<svg width="21" height="21" viewBox="0 0 21 21" fill="none" xmlns="http://www.w3.org/2000/svg">
<path fill-rule="evenodd" clip-rule="evenodd" d="M10.5 20.5C13.1522 20.5 15.6957 19.4464 17.5711 17.5711C19.4464 15.6957 20.5 13.1522 20.5 10.5C20.5 7.84784 19.4464 5.3043 17.5711 3.42893C15.6957 1.55357 13.1522 0.5 10.5 0.5C7.84784 0.5 5.3043 1.55357 3.42893 3.42893C1.55357 5.3043 0.5 7.84784 0.5 10.5C0.5 13.1522 1.55357 15.6957 3.42893 17.5711C5.3043 19.4464 7.84784 20.5 10.5 20.5ZM11.3837 7.63375C11.6114 7.398 11.7374 7.08224 11.7346 6.7545C11.7317 6.42675 11.6003 6.11324 11.3685 5.88148C11.1368 5.64972 10.8232 5.51826 10.4955 5.51541C10.1678 5.51256 9.852 5.63855 9.61625 5.86625L5.86625 9.61625C5.63191 9.85066 5.50027 10.1685 5.50027 10.5C5.50027 10.8315 5.63191 11.1493 5.86625 11.3837L9.61625 15.1337C9.852 15.3614 10.1678 15.4874 10.4955 15.4846C10.8232 15.4817 11.1368 15.3503 11.3685 15.1185C11.6003 14.8868 11.7317 14.5732 11.7346 14.2455C11.7374 13.9178 11.6114 13.602 11.3837 13.3663L9.7675 11.75H14.25C14.5815 11.75 14.8995 11.6183 15.1339 11.3839C15.3683 11.1495 15.5 10.8315 15.5 10.5C15.5 10.1685 15.3683 9.85054 15.1339 9.61612C14.8995 9.3817 14.5815 9.25 14.25 9.25H9.7675L11.3837 7.63375Z" fill="black"/>
</svg>
