<svg width="15" height="15" viewBox="0 0 15 15" fill="none" xmlns="http://www.w3.org/2000/svg">
<path d="M14.4643 0.937505H10.4464L10.1317 0.389653C10.065 0.272529 9.96233 0.174006 9.83515 0.105169C9.70798 0.0363316 9.56137 -8.87099e-05 9.41183 5.13654e-06H5.58482C5.43562 -0.000496734 5.28927 0.0357877 5.16255 0.104701C5.03582 0.173615 4.93385 0.272371 4.8683 0.389653L4.55357 0.937505H0.535714C0.393634 0.937505 0.257373 0.986891 0.156907 1.0748C0.0564412 1.16271 0 1.28193 0 1.40625L0 2.34375C0 2.46807 0.0564412 2.5873 0.156907 2.67521C0.257373 2.76312 0.393634 2.8125 0.535714 2.8125H14.4643C14.6064 2.8125 14.7426 2.76312 14.8431 2.67521C14.9436 2.5873 15 2.46807 15 2.34375V1.40625C15 1.28193 14.9436 1.16271 14.8431 1.0748C14.7426 0.986891 14.6064 0.937505 14.4643 0.937505ZM1.78125 13.6816C1.8068 14.0387 1.98688 14.3737 2.28484 14.6187C2.5828 14.8636 2.97623 15 3.38504 15H11.615C12.0238 15 12.4172 14.8636 12.7152 14.6187C13.0131 14.3737 13.1932 14.0387 13.2187 13.6816L13.9286 3.75H1.07143L1.78125 13.6816Z" fill="black"/>
</svg>
