<svg width="25" height="25" viewBox="0 0 25 25" fill="none" xmlns="http://www.w3.org/2000/svg">
<path fill-rule="evenodd" clip-rule="evenodd" d="M24.9995 12.5C24.9995 15.8152 23.6826 18.9946 21.3383 21.3388C18.9941 23.683 15.8147 25 12.4995 25C9.18431 25 6.00488 23.683 3.66068 21.3388C1.31647 18.9946 -0.000488281 15.8152 -0.000488281 12.5C-0.000488281 9.18479 1.31647 6.00537 3.66068 3.66117C6.00488 1.31696 9.18431 0 12.4995 0C15.8147 0 18.9941 1.31696 21.3383 3.66117C23.6826 6.00537 24.9995 9.18479 24.9995 12.5ZM15.6245 7.8125C15.6245 8.6413 15.2953 9.43616 14.7092 10.0222C14.1232 10.6083 13.3283 10.9375 12.4995 10.9375C11.6707 10.9375 10.8759 10.6083 10.2898 10.0222C9.70375 9.43616 9.37451 8.6413 9.37451 7.8125C9.37451 6.9837 9.70375 6.18884 10.2898 5.60279C10.8759 5.01674 11.6707 4.6875 12.4995 4.6875C13.3283 4.6875 14.1232 5.01674 14.7092 5.60279C15.2953 6.18884 15.6245 6.9837 15.6245 7.8125ZM12.4995 14.0625C11.0036 14.0622 9.53901 14.4914 8.27985 15.2991C7.02069 16.1067 6.01989 17.2589 5.39639 18.6188C6.27557 19.6416 7.36556 20.4621 8.59161 21.0242C9.81766 21.5862 11.1508 21.8765 12.4995 21.875C13.8483 21.8765 15.1814 21.5862 16.4074 21.0242C17.6335 20.4621 18.7235 19.6416 19.6026 18.6188C18.9791 17.2589 17.9783 16.1067 16.7192 15.2991C15.46 14.4914 13.9954 14.0622 12.4995 14.0625Z" fill="#3E3E3E"/>
</svg>
