<svg width="25" height="25" viewBox="0 0 25 25" fill="none" xmlns="http://www.w3.org/2000/svg">
<path fill-rule="evenodd" clip-rule="evenodd" d="M9.0952 3.99993C7.50019 3.99993 5.97051 4.63207 4.84267 5.75729C3.71483 6.88251 3.08121 8.40863 3.08121 9.99993C3.08121 11.5912 3.71483 13.1174 4.84267 14.2426C5.97051 15.3678 7.50019 15.9999 9.0952 15.9999C10.6902 15.9999 12.2199 15.3678 13.3477 14.2426C14.4756 13.1174 15.1092 11.5912 15.1092 9.99993C15.1092 8.40863 14.4756 6.88251 13.3477 5.75729C12.2199 4.63207 10.6902 3.99993 9.0952 3.99993ZM0.0742189 9.99993C0.0740377 8.58348 0.408961 7.187 1.05175 5.92404C1.69454 4.66109 2.62704 3.56733 3.77342 2.73172C4.91979 1.89611 6.24767 1.34225 7.64905 1.11518C9.05044 0.88811 10.4858 0.994246 11.8383 1.42495C13.1908 1.85566 14.4223 2.59878 15.4327 3.59387C16.4431 4.58896 17.2037 5.80793 17.6529 7.15163C18.102 8.49533 18.2269 9.92582 18.0174 11.3268C17.8079 12.7277 17.27 14.0595 16.4473 15.2139L23.6896 22.4394C23.9635 22.7223 24.1151 23.1012 24.1116 23.4945C24.1082 23.8878 23.9501 24.264 23.6713 24.5422C23.3926 24.8203 23.0155 24.978 22.6213 24.9814C22.227 24.9849 21.8473 24.8337 21.5637 24.5604L14.3229 17.3364C12.9733 18.2938 11.3855 18.8622 9.7337 18.9791C8.08185 19.096 6.42961 18.7571 4.95803 17.9994C3.48645 17.2417 2.25231 16.0945 1.39087 14.6835C0.529418 13.2724 0.0738969 11.6521 0.0742189 9.99993Z" fill="#8C8C8C"/>
</svg>
